PathFileType	4	(X/Y/Z)	D:\Research_projects\MuscleProsody\BulkSports2Dtrack\RetrackedSports2D\p1_sample60_cam3\p1_sample60_cam3_Sports2D\p1_sample60_cam3_Sports2D_px_person00.trc
DataRate	CameraRate	NumFrames	NumMarkers	Units	OrigDataRate	OrigDataStartFrame	OrigNumFrames
60	60	12	22	m	60	195	780
Frame#	Time	Hip			RHip			RKnee			RAnkle			RBigToe			RSmallToe			RHeel			LHip			LKnee			LAnkle			LBigToe			LSmallToe			LHeel			Neck			Head			Nose			RShoulder			RElbow			RWrist			LShoulder			LElbow			LWrist		
		X1	Y1	Z1	X2	Y2	Z2	X3	Y3	Z3	X4	Y4	Z4	X5	Y5	Z5	X6	Y6	Z6	X7	Y7	Z7	X8	Y8	Z8	X9	Y9	Z9	X10	Y10	Z10	X11	Y11	Z11	X12	Y12	Z12	X13	Y13	Z13	X14	Y14	Z14	X15	Y15	Z15	X16	Y16	Z16	X17	Y17	Z17	X18	Y18	Z18	X19	Y19	Z19	X20	Y20	Z20	X21	Y21	Z21	X22	Y22	Z22
195	3.25	226.90837217669494	494.9909140763384	0.0	200.59666922624595	505.05658467516935	0.0	202.62407002355366	635.6871078605485	0.0	207.5903238212081	749.5089009595955	0.0	180.00450425276298	794.4862780585166	0.0	170.88502301826603	784.0468445631889	0.0	221.0827441918443	760.4490228989744	0.0	255.6342425208851	503.32068485502606	0.0	252.85617536809644	638.3003595131739	0.0	255.97347750531503	765.7157083643954	0.0	220.31559585436435	812.1041089896563	0.0	241.85710243017135	812.0872036409338	0.0	263.2643233073018	778.0916736436756	0.0	216.55441954760627	308.676895572645	0.0	185.52505891879227	228.8193947504421	0.0	174.34658866248787	276.79941479346445	0.0	172.8505957794925	320.80181735521455	0.0	107.88050416558053	286.5593489602827	0.0	106.66758882084446	197.1042612762007	0.0	267.7421941239874	312.6386010261368	0.0	296.267223320295	247.36254561851922	0.0	260.02497721965244	159.3297425232057	0.0
196	3.2666666666666666	227.07656769203535	491.14434217763375	0.0	200.78929405085802	501.7686920394836	0.0	203.28015958998412	632.4272426070513	0.0	207.1150496631532	746.6148692320508	0.0	179.34617232127752	792.6432318749713	0.0	170.14584661052422	782.1090658251496	0.0	220.53041083117432	757.4626030466259	0.0	255.95663434584904	499.89833168403726	0.0	254.21067828399057	635.6569725989488	0.0	256.0939789828589	763.837894816756	0.0	219.7338462993092	811.0034546317032	0.0	241.04218445355826	811.1583900206587	0.0	263.2074409642977	776.3910650880225	0.0	216.7223334906008	304.44682080284855	0.0	185.55481775732875	225.11164050706782	0.0	174.5705889312444	273.17024086974254	0.0	172.93519670160725	316.6469273352024	0.0	108.20375544799391	281.7477919797291	0.0	107.92404726780933	191.7057068873898	0.0	267.8192884138812	308.3108725297848	0.0	295.2854569839561	242.1828860049989	0.0	258.1576910999972	154.4308066962782	0.0
197	3.283333333333333	227.24861176117278	488.7946460195445	0.0	201.0022824975329	499.84460271454896	0.0	203.7059341323853	630.3980634956843	0.0	206.67898413979447	744.696065597331	0.0	178.7361175091163	791.420189813496	0.0	169.49674010412775	780.8470657800406	0.0	219.98637098893354	755.444737876699	0.0	256.24608028082326	497.94153116817074	0.0	255.14006334613606	634.2427517537101	0.0	256.1456281062209	762.8396853718577	0.0	219.2335011946854	810.433817701723	0.0	240.31873758304775	810.7816092360745	0.0	263.17997922369625	775.5169814487351	0.0	216.8325493915989	301.7787328587696	0.0	185.53809821014573	222.94420569178817	0.0	174.71820545954176	271.07285065683254	0.0	173.06968501971164	314.11804395526985	0.0	108.36502234934511	279.11055558501494	0.0	109.11674490237947	188.759998607036	0.0	267.81196112087423	305.7266373731385	0.0	294.5137474612798	239.79184001805322	0.0	256.19361532520185	152.30258127361185	0.0
198	3.3	227.41080795420902	487.96690722137623	0.0	201.22176004457592	499.2882015252293	0.0	203.92459478553937	629.6487888604341	0.0	206.28500979215238	743.9012894237064	0.0	178.18617170673647	790.9278558716426	0.0	168.9465652159345	780.3761770231778	0.0	219.4548052044457	754.5513795782991	0.0	256.4792258563463	497.44628964390125	0.0	255.66595846701918	634.0811394818126	0.0	256.1019421147634	762.7950056499762	0.0	218.83059460324466	810.4523355145491	0.0	239.70290909207029	811.0065831557678	0.0	263.140340252007	775.5543663633713	0.0	216.88535286400702	300.7214138161896	0.0	185.48116393211856	222.34356108208155	0.0	174.80654531243658	270.51497780674094	0.0	173.264997190663	313.2308169360757	0.0	108.338388800562	278.5571364870821	0.0	110.1813635031875	188.1286149825478	0.0	267.7133269395919	304.9144699791977	0.0	293.9267297859984	240.14246615069612	0.0	254.15045728890252	152.83399635186484	0.0
199	3.3166666666666664	227.56070439224712	488.63806329221524	0.0	201.4391658773275	500.059277772054	0.0	203.9594194382339	630.1662764524887	0.0	205.94880262818504	744.2925314098504	0.0	177.7057300372403	791.2028356345642	0.0	168.51056213104408	780.7330139889792	0.0	218.9593326584851	754.8529764186584	0.0	256.6453057242923	498.3610593227805	0.0	255.81456319858626	635.1293588132479	0.0	255.95023453760902	763.7077587799001	0.0	218.53382823284713	811.0700227419715	0.0	239.20646914194623	811.8333430026313	0.0	263.0610023180275	776.5161498012524	0.0	216.87781771325555	301.28954146046414	0.0	185.36505876373207	223.29699486787518	0.0	174.83580107964713	271.48164505103455	0.0	173.52191555283827	313.97027105446904	0.0	108.12381780900262	279.98505399168084	0.0	111.05694638723442	189.67736864329706	0.0	267.5173530926084	305.85748813522895	0.0	293.49976809663485	243.17042874689338	0.0	252.06257197032073	155.92869834881355	0.0
200	3.3333333333333335	227.70455347760353	490.73506173293754	0.0	201.6498682038308	502.07315262207436	0.0	203.83175863950063	631.8770334223184	0.0	205.69104928673016	745.8408102190614	0.0	177.31128828185504	792.2039958182461	0.0	168.21111206527337	781.8726977134335	0.0	218.53477614285796	756.3314200109369	0.0	256.7455469954612	500.587517032952	0.0	255.61484543258274	637.2808148078914	0.0	255.6938137561816	765.5107387041547	0.0	218.35165389707953	812.2504704918356	0.0	238.8426020142933	813.2103638963397	0.0	262.93201696928406	778.3384855307614	0.0	216.80721116645344	303.4620210305852	0.0	185.14688713880847	225.75382865702986	0.0	174.79002133503386	273.9335059140595	0.0	173.8376540192512	316.2937444540296	0.0	107.7451949631398	283.29458768076	0.0	111.69281895359686	193.29153044142987	0.0	267.2192401013172	308.4949498283174	0.0	293.209129926529	248.79497934291797	0.0	249.9733090906822	161.51788617481316	0.0
201	3.35	227.8506397301636	494.1467770865025	0.0	201.85256896028858	505.2153648103835	0.0	203.56251469547308	634.6599997470092	0.0	205.53443792587467	748.4312549135643	0.0	177.02853109593465	793.823113909556	0.0	168.07642626823298	783.6781094753416	0.0	218.21972771371156	758.8853162758197	0.0	256.7898383425896	503.9935047546402	0.0	255.0992517236785	640.3817763819819	0.0	255.35183930546916	768.072265215703	0.0	218.28742441264257	813.9098000649809	0.0	238.622973226628	815.0381137652297	0.0	262.7656375271898	780.8903334389976	0.0	216.66913843325293	307.1705356427385	0.0	184.77344025885006	229.6284136974671	0.0	174.64475452467647	277.79302797311806	0.0	174.20343902419984	320.12568571877875	0.0	107.24797554524388	288.39749865854606	0.0	112.05272769005872	198.88906315559865	0.0	266.81760393678746	312.7174126299031	0.0	293.0317737095195	256.91407160536585	0.0	247.93020259342865	169.54606539547677	0.0
202	3.3666666666666667	228.00486877780787	498.7391282115057	0.0	202.05140170956605	509.36262148048183	0.0	203.17546518997068	638.3603065811317	0.0	205.50203349687212	751.8748751116219	0.0	176.88589040007696	795.9061999666056	0.0	168.13648094701045	785.979040393909	0.0	218.04858699955466	762.3394636604717	0.0	256.79436048422923	508.43275806297703	0.0	254.30426618107782	644.2545834496086	0.0	254.95801504281212	771.2158286850889	0.0	218.33208826844287	815.9243506760542	0.0	238.54883419168877	817.1827467837588	0.0	262.5991608406427	783.9978891531196	0.0	216.4533103200007	312.2874228990969	0.0	184.20167283281324	234.7999977452375	0.0	174.37357824824616	282.9379952574542	0.0	174.59733059467877	325.35069954597196	0.0	106.6967825912383	295.2132027504784	0.0	112.11306381028339	206.41972564452522	0.0	266.31699240238856	318.36387454760256	0.0	292.94740615636175	267.3952395806879	0.0	245.97988772728004	179.9489135099252	0.0
203	3.3833333333333333	228.17313371464098	504.3539141449735	0.0	202.2573164517325	514.3816384435651	0.0	202.6941855766102	642.7910588202816	0.0	205.61180950722783	755.9251608712653	0.0	176.9057841603624	798.273560610633	0.0	168.4145824063269	788.5751703714488	0.0	218.04410635317114	766.4545435621944	0.0	256.78281172167715	513.7466007421629	0.0	253.26603584522934	648.7074234974596	0.0	254.55694888324314	774.7436286268428	0.0	218.4689727254859	818.1465511525025	0.0	238.6090892542203	819.4948614200174	0.0	262.4889597888796	787.4655256738863	0.0	216.1448938893931	318.6274005379274	0.0	183.40147171868423	241.10817323176693	0.0	173.94446778412615	289.2125445096485	0.0	174.98538836779625	331.8120935378764	0.0	106.16930555399983	303.6556046904233	0.0	111.85804419622737	215.8436161254478	0.0	265.7276976242904	325.22833498710753	0.0	292.9411162100332	280.06847461639535	0.0	244.1551311677735	192.64396488579771	0.0
204	3.4	228.36618532268548	510.7970401390706	0.0	202.48630611221822	520.1098619467133	0.0	202.13551230654562	647.7323551895831	0.0	205.87066557804224	760.2974781668248	0.0	177.0982166240597	800.734644606787	0.0	168.91599688115042	791.2577513742663	0.0	218.21514448870855	770.9399477098772	0.0	256.78592380017506	519.7499717979626	0.0	252.01535636568298	653.5350496563168	0.0	254.19747353947417	778.4508095211268	0.0	218.67709163861963	820.4211401986863	0.0	238.78083957054082	821.8251668403888	0.0	262.49800767409135	791.0846351766037	0.0	215.73057663647123	325.9570904037502	0.0	182.34518845746524	248.3489417397925	0.0	173.3160732682213	296.4328702330951	0.0	175.32929911549934	339.31295497577497	0.0	105.74823650203511	313.6183186571323	0.0	111.2769621373164	227.10966119555724	0.0	265.0639961765466	333.06772820991324	0.0	293.00453421686217	294.7198263160022	0.0	242.46488086568505	207.53245875900294	0.0
205	3.4166666666666665	228.60033131006392	517.8316888052644	0.0	202.7562762862627	526.3459593815641	0.0	201.50942186105593	652.9369430135222	0.0	206.2757477712294	764.6826746069316	0.0	177.460062848812	803.1007785828839	0.0	169.622224132501	793.8241741312976	0.0	218.56058779831335	775.4676436899839	0.0	256.83602070061033	526.2242703401698	0.0	250.58094181168508	658.5213301757627	0.0	253.92563647547686	782.1235754421637	0.0	218.92906860896784	822.5952522217581	0.0	239.03185321479233	824.0327836094922	0.0	262.6827764922461	794.6334473473227	0.0	215.20078874037196	333.99616070266694	0.0	181.01221730152847	256.2740580382707	0.0	172.44375008958286	304.3748859588814	0.0	175.5908606432506	347.615704049324	0.0	105.5170961893438	324.96097974116304	0.0	110.36420224026524	240.15061682310127	0.0	264.3443126699989	341.6030652531878	0.0	293.1341152896107	311.0795007084885	0.0	240.90033327350704	224.5057026985689	0.0
206	3.433333333333333	228.8937184527111	525.1817431742473	0.0	203.0841609911989	532.8528384856753	0.0	200.82306187255298	658.1438332182788	0.0	206.81811003607982	768.7711263268413	0.0	177.97758064415567	805.2074122732306	0.0	170.49355050053686	796.0987446665748	0.0	219.07078848973435	779.7027491697069	0.0	256.961596123933	532.9201065989456	0.0	248.996974829619	663.4458227888149	0.0	253.7769379708653	785.5438269051623	0.0	219.1989829463673	824.5370043428827	0.0	239.33366663589672	825.998712231504	0.0	263.07836959104446	797.8890026380382	0.0	214.55111366059847	342.4235122830897	0.0	179.4020058940914	264.5950386028138	0.0	171.29160355677993	312.7686486066681	0.0	175.738569221955	356.44542768284896	0.0	105.56306664311413	337.50586513476884	0.0	109.12125510404958	254.8894362007778	0.0	263.5943004454905	350.52494610886174	0.0	293.3261784584427	328.8205625157297	0.0	239.44569601968982	243.45377307885153	0.0
